<svg id="Layer_1" data-name="Layer 1" xmlns="http://www.w3.org/2000/svg" viewBox="0 0 441.73 440.72"><defs><style>.cls-1{fill:#c70d54;}.cls-2{fill:#fa9000;}.cls-3{fill:#7b3d71;}</style></defs><title>MyLogo2</title><path class="cls-1" d="M475.91,134.16a16.88,16.88,0,0,1,16.88-16.88H645.57a16.88,16.88,0,0,1,16.87,16.88V286.93a16.87,16.87,0,0,1-16.87,16.88H492.79a16.88,16.88,0,0,1-16.88-16.88Z" transform="translate(-421.26 -117.28)"/><path class="cls-1" d="M799.19,163.2H692.33a16.88,16.88,0,0,0-16.88,16.88V286.93a16.88,16.88,0,0,0,16.88,16.88H799.19a16.87,16.87,0,0,0,16.87-16.88V180.08A16.87,16.87,0,0,0,799.19,163.2Zm-11.7,86.61H762.06v25.43H729.47V249.81H704V217.21h25.43V191.78h32.59v25.43h25.43Z" transform="translate(-421.26 -117.28)"/><path class="cls-2" d="M645.57,316.82H438.14a16.88,16.88,0,0,0-16.88,16.88V471.78c9-18.81,28-42.46,32.13-53a41.4,41.4,0,0,1,13.28-17.28c4.91-15.43,13.49-34,20.48-39.94,10.16-8.64,12.36-22.86,12.36-22.86,9.14,9.64,8.3,26.58,8.3,26.58,4.9-10.84,14.72-16.76,14.72-16.76-5.1,9.22-3.52,29.25-2.33,39.19,11.13-.66,21-.08,26.84,2.93,10.86,5.63,23.73,18.5,20.11,26.94a82.57,82.57,0,0,0,39.39,19.29c24.12,4.42,30.14,9.24,29.34,20.5s-6.43,14.87-6.43,14.87S620.6,504,599.3,504s-52.25-5.62-54.26,2.82,1.2,12.46,1.2,12.46-12.86-3.61-12.46,7.23c0,0-10.91-.53-14.38,31.53H645.56a16.87,16.87,0,0,0,16.88-16.88V333.7A16.87,16.87,0,0,0,645.57,316.82Z" transform="translate(-421.26 -117.28)"/><path class="cls-1" d="M816.06,286.93V180.08a16.82,16.82,0,0,0-6.15-13L762.06,214.9v2.31h25.43v32.6H762.06v25.43H729.47V249.81h-2.31L679.3,297.66a16.83,16.83,0,0,0,13,6.15H799.19A16.87,16.87,0,0,0,816.06,286.93Z" transform="translate(-421.26 -117.28)"/><path class="cls-2" d="M662.44,541.12V333.7a16.82,16.82,0,0,0-6.16-13l-89.42,89.42a9.81,9.81,0,0,1,.29,7.46,82.57,82.57,0,0,0,39.39,19.29c24.12,4.42,30.14,9.24,29.34,20.5s-6.43,14.87-6.43,14.87S620.6,504,599.3,504s-52.25-5.62-54.26,2.82,1.2,12.46,1.2,12.46-12.86-3.61-12.46,7.23c0,0-10.91-.53-14.38,31.53H645.56A16.87,16.87,0,0,0,662.44,541.12Z" transform="translate(-421.26 -117.28)"/><path class="cls-3" d="M479.11,124.3a16.74,16.74,0,0,0-3.2,9.86V286.93a16.88,16.88,0,0,0,16.88,16.88H645.57a16.71,16.71,0,0,0,9.85-3.2Z" transform="translate(-421.26 -117.28)"/><path class="cls-1" d="M645.57,316.82H438.14a16.88,16.88,0,0,0-16.88,16.88V471.78c9-18.81,28-42.46,32.13-53a41.4,41.4,0,0,1,13.28-17.28c4.91-15.43,13.49-34,20.48-39.94,10.16-8.64,12.36-22.86,12.36-22.86,9.14,9.64,8.3,26.58,8.3,26.58,4.9-10.84,14.72-16.76,14.72-16.76-5.1,9.22-3.52,29.25-2.33,39.19,11.13-.66,21-.08,26.84,2.93,10.86,5.63,23.73,18.5,20.11,26.94a82.57,82.57,0,0,0,39.39,19.29c24.12,4.42,30.14,9.24,29.34,20.5s-6.43,14.87-6.43,14.87S620.6,504,599.3,504s-52.25-5.62-54.26,2.82,1.2,12.46,1.2,12.46-12.86-3.61-12.46,7.23c0,0-10.91-.53-14.38,31.53H645.56a16.87,16.87,0,0,0,16.88-16.88V333.7A16.87,16.87,0,0,0,645.57,316.82Z" transform="translate(-421.26 -117.28)"/><path class="cls-1" d="M662.44,541.12V333.7a16.82,16.82,0,0,0-6.16-13l-89.42,89.42a9.81,9.81,0,0,1,.29,7.46,82.57,82.57,0,0,0,39.39,19.29c24.12,4.42,30.14,9.24,29.34,20.5s-6.43,14.87-6.43,14.87S620.6,504,599.3,504s-52.25-5.62-54.26,2.82,1.2,12.46,1.2,12.46-12.86-3.61-12.46,7.23c0,0-10.91-.53-14.38,31.53H645.56A16.87,16.87,0,0,0,662.44,541.12Z" transform="translate(-421.26 -117.28)"/><path class="cls-3" d="M857.18,458.71c-.25,4.06,2.7,8.06,5.8,11.1v-12.6C859.32,459.71,857.18,458.71,857.18,458.71Z" transform="translate(-421.26 -117.28)"/><path class="cls-3" d="M774.57,487.84c0,.18-.07.35-.1.53C774.5,488.19,774.53,488,774.57,487.84Z" transform="translate(-421.26 -117.28)"/><path class="cls-3" d="M775.2,484.51c-.17.89-.34,1.82-.53,2.79C774.86,486.33,775,485.4,775.2,484.51Z" transform="translate(-421.26 -117.28)"/><path class="cls-3" d="M752.31,412.85l0,.09Z" transform="translate(-421.26 -117.28)"/><path class="cls-3" d="M774.2,489.74c-.34,1.76-.71,3.59-1.09,5.45C773.49,493.33,773.86,491.5,774.2,489.74Z" transform="translate(-421.26 -117.28)"/><path class="cls-3" d="M775.92,480.51l0,.21A1.3,1.3,0,0,1,775.92,480.51Z" transform="translate(-421.26 -117.28)"/><path class="cls-3" d="M776.53,476.66a.51.51,0,0,0,0,.13A.51.51,0,0,1,776.53,476.66Z" transform="translate(-421.26 -117.28)"/><path class="cls-3" d="M776.65,475.5v0Z" transform="translate(-421.26 -117.28)"/><path class="cls-3" d="M775.81,481.1c0,.15,0,.3-.08.45C775.76,481.4,775.79,481.25,775.81,481.1Z" transform="translate(-421.26 -117.28)"/><path class="cls-3" d="M776.06,479.66c0,.09,0,.18,0,.27C776,479.84,776,479.75,776.06,479.66Z" transform="translate(-421.26 -117.28)"/><path class="cls-3" d="M775.72,481.61c-.14.83-.3,1.72-.48,2.66C775.42,483.33,775.58,482.44,775.72,481.61Z" transform="translate(-421.26 -117.28)"/><path class="cls-3" d="M774.38,488.83c0,.21-.08.42-.13.63C774.3,489.25,774.34,489,774.38,488.83Z" transform="translate(-421.26 -117.28)"/><path class="cls-3" d="M754,410.22l0,.07Z" transform="translate(-421.26 -117.28)"/><path class="cls-3" d="M771.38,503.36c0-.2.09-.4.13-.6,0,.2-.09.4-.13.6Z" transform="translate(-421.26 -117.28)"/><path class="cls-3" d="M771.87,501.12l-.24,1.1Z" transform="translate(-421.26 -117.28)"/><path class="cls-3" d="M776.29,478.26a2.34,2.34,0,0,0,0,.26A2.34,2.34,0,0,1,776.29,478.26Z" transform="translate(-421.26 -117.28)"/><path class="cls-3" d="M776.23,478.64c0,.18-.06.36-.09.56C776.17,479,776.2,478.82,776.23,478.64Z" transform="translate(-421.26 -117.28)"/><path class="cls-3" d="M773.11,495.19c-.24,1.17-.48,2.34-.73,3.52C772.63,497.53,772.87,496.36,773.11,495.19Z" transform="translate(-421.26 -117.28)"/><path class="cls-3" d="M753.11,411.51a.61.61,0,0,1-.07.1A.61.61,0,0,0,753.11,411.51Z" transform="translate(-421.26 -117.28)"/><path class="cls-3" d="M776.47,477.08a1.43,1.43,0,0,1,0,.22A1.43,1.43,0,0,0,776.47,477.08Z" transform="translate(-421.26 -117.28)"/><path class="cls-3" d="M772.34,498.89c-.15.73-.31,1.46-.46,2.18C772,500.35,772.19,499.62,772.34,498.89Z" transform="translate(-421.26 -117.28)"/><path class="cls-3" d="M776.51,476.79c0,.09,0,.19,0,.29C776.48,477,776.5,476.88,776.51,476.79Z" transform="translate(-421.26 -117.28)"/><path class="cls-3" d="M776.66,475.16a2.08,2.08,0,0,1,0,.34A2.08,2.08,0,0,0,776.66,475.16Z" transform="translate(-421.26 -117.28)"/><path class="cls-3" d="M754,410.29c-.31.4-.6.81-.87,1.22C753.38,411.1,753.67,410.69,754,410.29Z" transform="translate(-421.26 -117.28)"/><path class="cls-3" d="M753,411.61c-.26.41-.51.82-.73,1.24C752.53,412.43,752.78,412,753,411.61Z" transform="translate(-421.26 -117.28)"/><path class="cls-3" d="M755,409c-.35.4-.68.82-1,1.24C754.36,409.8,754.69,409.38,755,409Z" transform="translate(-421.26 -117.28)"/><path class="cls-3" d="M776.43,477.3c0,.3-.09.62-.14,1C776.34,477.92,776.39,477.6,776.43,477.3Z" transform="translate(-421.26 -117.28)"/><path class="cls-3" d="M752.26,412.94a12.31,12.31,0,0,0-.61,1.34A12.31,12.31,0,0,1,752.26,412.94Z" transform="translate(-421.26 -117.28)"/><path class="cls-3" d="M776.65,475.61l-.12,1.05Z" transform="translate(-421.26 -117.28)"/><path class="cls-3" d="M774.25,489.46a2.74,2.74,0,0,1,0,.28A2.74,2.74,0,0,0,774.25,489.46Z" transform="translate(-421.26 -117.28)"/><path class="cls-3" d="M772.38,498.71l0,.18Z" transform="translate(-421.26 -117.28)"/><path class="cls-3" d="M771.88,501.07v0Z" transform="translate(-421.26 -117.28)"/><path class="cls-3" d="M776.25,478.52l0,.12Z" transform="translate(-421.26 -117.28)"/><path class="cls-3" d="M773.11,495.19Z" transform="translate(-421.26 -117.28)"/><path class="cls-3" d="M771.63,502.22l-.12.54Z" transform="translate(-421.26 -117.28)"/><path class="cls-3" d="M774.47,488.37l-.09.46Z" transform="translate(-421.26 -117.28)"/><path class="cls-3" d="M775.88,480.72c0,.12,0,.25-.07.38C775.84,481,775.86,480.84,775.88,480.72Z" transform="translate(-421.26 -117.28)"/><path class="cls-3" d="M774.67,487.3c0,.18-.07.36-.1.54C774.6,487.66,774.64,487.48,774.67,487.3Z" transform="translate(-421.26 -117.28)"/><path class="cls-3" d="M776.14,479.2c0,.15,0,.3-.08.46C776.09,479.5,776.11,479.35,776.14,479.2Z" transform="translate(-421.26 -117.28)"/><path class="cls-3" d="M776,479.93l-.09.58Z" transform="translate(-421.26 -117.28)"/><path class="cls-3" d="M775.73,481.55v0Z" transform="translate(-421.26 -117.28)"/><path class="cls-3" d="M775.24,484.27l0,.24Z" transform="translate(-421.26 -117.28)"/><path class="cls-3" d="M846.1,316.82H693.33a16.91,16.91,0,0,0-16.88,16.88V486.48a16.89,16.89,0,0,0,16.89,16.88h78c0-.2.09-.4.13-.6l.12-.54.24-1.1v-.05c.15-.72.31-1.45.46-2.18l0-.18c.25-1.18.49-2.35.73-3.52h0c.38-1.86.75-3.69,1.09-5.45a2.74,2.74,0,0,0,0-.28c0-.21.09-.42.13-.63l.09-.46c0-.18.06-.35.1-.53s.07-.36.1-.54c.19-1,.36-1.9.53-2.79l0-.24c.18-.94.34-1.83.48-2.66v-.06c0-.15.06-.3.08-.45s.05-.26.07-.38l0-.21.09-.58c0-.09,0-.18,0-.27s.05-.31.08-.46.06-.38.09-.56l0-.12a2.34,2.34,0,0,1,0-.26c.05-.34.1-.66.14-1a1.43,1.43,0,0,0,0-.22c0-.1,0-.2,0-.29a.51.51,0,0,1,0-.13l.12-1.05v-.11a2.08,2.08,0,0,0,0-.34h-5.08c4.85-6.38,2.65-10.13,2.65-10.13-24.53,8.59-32-13.44-32-13.44-5.37-2.45.25-5.89,4.59-10.8s2.3-19.88,4.86-26.51a12.31,12.31,0,0,1,.61-1.34l0-.09c.22-.42.47-.83.73-1.24a.61.61,0,0,0,.07-.1c.27-.41.56-.82.87-1.22l0-.07c.33-.42.66-.84,1-1.24a49.24,49.24,0,0,1,8.87-7.72c-2-10.78-10.47-18.16-10.47-18.16,13-1.53,26.1,13.49,26.1,13.49l3.28.25c3.07-4.41,0-25.77,0-25.77,20.19,4.66,24,24.3,24,24.3,22.23-1.71,37.82,36.34,43.18,48.61,3.73,8.54,9.68,10.66,13,11.16V333.7A16.89,16.89,0,0,0,846.1,316.82Z" transform="translate(-421.26 -117.28)"/></svg>